<svg width="28" height="28" viewBox="0 0 28 28" fill="none" xmlns="http://www.w3.org/2000/svg">
<path d="M19.4394 13.7231L19.4394 14.8667L17.1522 14.8667L17.1522 17.1539L14.865 17.1539L14.865 3.43066L12.5778 3.43066L12.5778 17.1539L10.2906 17.1539L10.2906 14.8667L8.00337 14.8667L8.00337 13.7231L5.71617 13.7231L5.71617 17.1539L8.00337 17.1539L8.00337 19.4411L10.2906 19.4411L10.2906 21.7283L11.4342 21.7283L11.4342 22.8718L12.5778 22.8718L12.5778 24.0154L14.865 24.0154L14.865 22.8718L16.0086 22.8718L16.0086 21.7283L17.1522 21.7283L17.1522 19.4411L19.4394 19.4411L19.4394 17.1539L21.7266 17.1539L21.7266 13.7231L19.4394 13.7231Z" fill="white"/>
</svg>
