<svg width="28" height="28" viewBox="0 0 28 28" fill="none" xmlns="http://www.w3.org/2000/svg">
<path d="M8.00986 13.7232L8.00986 12.5796L10.2971 12.5796L10.2971 10.2924L12.5843 10.2924L12.5843 24.0156L14.8715 24.0156L14.8715 10.2924L17.1587 10.2924L17.1587 12.5796L19.4458 12.5796L19.4458 13.7232L21.733 13.7232L21.733 10.2924L19.4458 10.2924L19.4458 8.00524L17.1587 8.00524L17.1587 5.71804L16.0151 5.71804L16.0151 4.57444L14.8715 4.57444L14.8715 3.43084L12.5843 3.43084L12.5843 4.57444L11.4407 4.57444L11.4407 5.71804L10.2971 5.71804L10.2971 8.00524L8.00986 8.00524L8.00986 10.2924L5.72266 10.2924L5.72266 13.7232L8.00986 13.7232Z" fill="white"/>
</svg>
