<svg width="37" height="37" viewBox="0 0 37 37" fill="none" xmlns="http://www.w3.org/2000/svg">
<rect x="0.0517578" width="36.9452" height="36.9452" rx="18.4726" fill="#F7931A"/>
<path d="M24.2623 16.3434C24.542 14.471 23.1164 13.4645 21.167 12.793L21.7993 10.2566L20.255 9.87183L19.6394 12.3414C19.2339 12.2403 18.8171 12.1448 18.4028 12.0503L19.0228 9.56446L17.4798 9.17969L16.847 11.7152C16.5111 11.6387 16.1813 11.5631 15.8611 11.4835L15.8629 11.4756L13.7337 10.9439L13.323 12.5929C13.323 12.5929 14.4685 12.8554 14.4443 12.8717C15.0696 13.0278 15.1831 13.4416 15.1637 13.7697L14.4434 16.6592C14.4865 16.6702 14.5424 16.686 14.6039 16.7106L14.4412 16.6702L13.4312 20.7179C13.3546 20.9079 13.1607 21.1928 12.7236 21.0847C12.739 21.1071 11.6014 20.8046 11.6014 20.8046L10.835 22.5723L12.8446 23.0732C13.2183 23.1668 13.5846 23.2649 13.9448 23.3572L13.3058 25.9231L14.848 26.3079L15.4812 23.7697C15.902 23.884 16.311 23.9896 16.7112 24.0889L16.0806 26.6152L17.6245 27L18.2634 24.4394C20.8961 24.9376 22.8763 24.7367 23.7087 22.3559C24.3802 20.4387 23.6757 19.3328 22.2905 18.6112C23.2993 18.3777 24.0596 17.7141 24.2623 16.3434ZM20.7343 21.29C20.2567 23.2073 17.0291 22.1713 15.9821 21.9109L16.8299 18.5122C17.8765 18.7734 21.2316 19.2905 20.7343 21.29ZM21.2114 16.3157C20.7761 18.0597 18.0893 17.1737 17.2173 16.9564L17.986 13.8739C18.8579 14.0911 21.6652 14.4965 21.2114 16.3157Z" fill="white"/>
</svg>
