<svg width="24" height="24" viewBox="0 0 24 24" fill="none" xmlns="http://www.w3.org/2000/svg">
<path d="M12 22.75C6.07 22.75 1.25 17.93 1.25 12C1.25 6.07 6.07 1.25 12 1.25C12.41 1.25 12.75 1.59 12.75 2C12.75 2.41 12.41 2.75 12 2.75C6.9 2.75 2.75 6.9 2.75 12C2.75 17.1 6.9 21.25 12 21.25C17.1 21.25 21.25 17.1 21.25 12C21.25 11.59 21.59 11.25 22 11.25C22.41 11.25 22.75 11.59 22.75 12C22.75 17.93 17.93 22.75 12 22.75Z" fill="#00FF15"/>
<path d="M10.6602 15.2301C10.4702 15.2301 10.2802 15.1601 10.1302 15.0101L8.52023 13.4001C8.23023 13.1101 8.23023 12.6301 8.52023 12.3401C8.81023 12.0501 9.29023 12.0501 9.58023 12.3401L10.6602 13.4201L14.4302 9.65012C14.7202 9.36012 15.2002 9.36012 15.4902 9.65012C15.7802 9.94012 15.7802 10.4201 15.4902 10.7101L11.1902 15.0101C11.0402 15.1601 10.8502 15.2301 10.6602 15.2301Z" fill="#00FF15"/>
</svg>
